<svg aria-hidden="true" style="position: absolute; width: 0; height: 0; overflow: hidden;" version="1.1" xmlns="http://www.w3.org/2000/svg" xmlns:xlink="http://www.w3.org/1999/xlink">
<defs>
<symbol id="icon-arrow-long-up" viewBox="0 0 20 20">
<title>arrow-long-up</title>
<path d="M10 0.75l5.5 5.25h-3.5v13h-4v-13h-3.5l5.5-5.25z"></path>
</symbol>
<symbol id="icon-chevron-up" viewBox="0 0 20 20">
<title>chevron-up</title>
<path d="M15.484 12.452c-0.436 0.446-1.043 0.481-1.576 0l-3.908-3.747-3.908 3.747c-0.533 0.481-1.141 0.446-1.574 0-0.436-0.445-0.408-1.197 0-1.615 0.406-0.418 4.695-4.502 4.695-4.502 0.217-0.223 0.502-0.335 0.787-0.335s0.57 0.112 0.789 0.335c0 0 4.287 4.084 4.695 4.502s0.436 1.17 0 1.615z"></path>
</symbol>
<symbol id="icon-menu" viewBox="0 0 20 20">
<title>menu</title>
<path d="M16.4 9h-12.8c-0.552 0-0.6 0.447-0.6 1s0.048 1 0.6 1h12.8c0.552 0 0.6-0.447 0.6-1s-0.048-1-0.6-1zM16.4 13h-12.8c-0.552 0-0.6 0.447-0.6 1s0.048 1 0.6 1h12.8c0.552 0 0.6-0.447 0.6-1s-0.048-1-0.6-1zM3.6 7h12.8c0.552 0 0.6-0.447 0.6-1s-0.048-1-0.6-1h-12.8c-0.552 0-0.6 0.447-0.6 1s0.048 1 0.6 1z"></path>
</symbol>
<symbol id="icon-plus" viewBox="0 0 20 20">
<title>plus</title>
<path d="M16 10c0 0.553-0.048 1-0.601 1h-4.399v4.399c0 0.552-0.447 0.601-1 0.601s-1-0.049-1-0.601v-4.399h-4.399c-0.552 0-0.601-0.447-0.601-1s0.049-1 0.601-1h4.399v-4.399c0-0.553 0.447-0.601 1-0.601s1 0.048 1 0.601v4.399h4.399c0.553 0 0.601 0.447 0.601 1z"></path>
</symbol>
<symbol id="icon-newspaper" viewBox="0 0 32 32">
<title>newspaper</title>
<path d="M28 8v-4h-28v22c0 1.105 0.895 2 2 2h27c1.657 0 3-1.343 3-3v-17h-4zM26 26h-24v-20h24v20zM4 10h20v2h-20zM16 14h8v2h-8zM16 18h8v2h-8zM16 22h6v2h-6zM4 14h10v10h-10z"></path>
</symbol>
<symbol id="icon-bubble" viewBox="0 0 32 32">
<title>bubble</title>
<path d="M16 2c8.837 0 16 5.82 16 13s-7.163 13-16 13c-0.849 0-1.682-0.054-2.495-0.158-3.437 3.437-7.539 4.053-11.505 4.144v-0.841c2.142-1.049 4-2.961 4-5.145 0-0.305-0.024-0.604-0.068-0.897-3.619-2.383-5.932-6.024-5.932-10.103 0-7.18 7.163-13 16-13z"></path>
</symbol>
<symbol id="icon-menu1" viewBox="0 0 32 32">
<title>menu1</title>
<path d="M2 6h28v6h-28zM2 14h28v6h-28zM2 22h28v6h-28z"></path>
</symbol>
<symbol id="icon-facebook" viewBox="0 0 32 32">
<title>facebook</title>
<path d="M19 6h5v-6h-5c-3.86 0-7 3.14-7 7v3h-4v6h4v16h6v-16h5l1-6h-6v-3c0-0.542 0.458-1 1-1z"></path>
</symbol>
</defs>
</svg>
